<svg viewBox="0 0 800 800" xmlns="http://www.w3.org/2000/svg"><path d="M639.9880240768895,280.6612086060531 L640.1209191598585,240.0824550073149 M158.1795579923043,558.833456197829 L158.0446251619636,518.099909127932 M639.9880240768895,280.6612086060531 L663.8689160746711,295.8519808324224 M663.8689160746711,295.8519808324224 L684.8880380124679,312.40367771454277 M684.8880380124679,312.40367771454277 L702.8132650631038,330.1383719504113 M702.8132650631038,330.1383719504113 L717.445088760804,348.86490768397505 M717.445088760804,348.86490768397505 L728.6190905645668,368.38080470505423 M728.6190905645668,368.38080470505423 L736.20783816347,388.4744057351489 M736.20783816347,388.4744057351489 L740.1224872511343,408.92705764143153 M740.1224872511343,408.92705764143153 L740.3140242675513,429.515455633509 M740.3140242675513,429.515455633509 L736.7740786862096,450.01409098336666 M736.7740786862096,450.01409098336666 L729.5352881770151,470.19764938819065 M729.5352881770151,470.19764938819065 L718.6712026320575,489.84354639826523 M718.6712026320575,489.84354639826523 L704.2957099411003,508.7344435743754 M704.2957099411003,508.7344435743754 L686.5620253406337,526.6606776276728 M686.5620253406337,526.6606776276728 L665.6612860682955,543.4227219883041 M665.6612860682955,543.4227219883041 L641.8204420076961,558.8334561978288 M641.8204420076961,558.8334561978288 L615.300031037151,572.7204359642242 M615.300031037151,572.7204359642242 L586.3911916992614,584.9278547454226 M586.3911916992614,584.9278547454226 L555.4126001201241,595.318507704354 M555.4126001201241,595.318507704354 L522.7067774476101,603.7753502155288 M522.7067774476101,603.7753502155288 L488.63629345008655,610.2030132039636 M488.63629345008655,610.2030132039636 L453.5795251570607,614.5289209670709 M453.5795251570607,614.5289209670709 L417.9263599396258,616.70417634607 M417.9263599396258,616.70417634607 L382.07364006037426,616.70417634607 M382.07364006037426,616.70417634607 L346.42047484293937,614.5289209670709 M346.42047484293937,614.5289209670709 L311.3637065499135,610.2030132039636 M311.3637065499135,610.2030132039636 L277.29322255239,603.7753502155288 M277.29322255239,603.7753502155288 L244.58739987987593,595.318507704354 M244.58739987987593,595.318507704354 L213.60880830073853,584.9278547454223 M213.60880830073853,584.9278547454223 L184.699968962849,572.7204359642242 M184.699968962849,572.7204359642242 L158.1795579923043,558.833456197829 M640.1209191598585,240.0824550073149 L664.0150963327891,255.26471339328032 M664.0150963327891,255.26471339328032 L685.0459343285125,271.8071416707801 M685.0459343285125,271.8071416707801 L702.9811779283863,289.53191408547076 M702.9811779283863,289.53191408547076 L717.6212055211156,308.24798347651534 M717.6212055211156,308.24798347651534 L728.8015041342264,327.75298431550016 M728.8015041342264,327.75298431550016 L736.3945669221979,347.8353787086514 M736.3945669221979,347.8353787086514 L740.3114959890189,368.27663632546916 M740.3114959890189,368.27663632546916 L740.5032460018405,388.85357723947874 M740.5032460018405,388.85357723947874 L736.9614371262055,409.3408182572714 M736.9614371262055,409.3408182572714 L729.7187205949585,429.5131699419992 M729.7187205949585,429.5131699419992 L718.8486828823186,449.1481706502477 M718.8486828823186,449.1481706502477 L704.4652713508501,468.0286013331955 M704.4652713508501,468.0286013331955 L686.7217832097278,485.94491339079826 M686.7217832097278,485.94491339079826 L665.8094595323223,502.6976889564409 M665.8094595323223,502.6976889564409 L641.9553748380367,518.0999091279319 M641.9553748380367,518.0999091279319 L615.4202112757989,531.9792228725926 M615.4202112757989,531.9792228725926 L586.4952696604598,544.1799076383779 M586.4952696604598,544.1799076383779 L555.49940467368,554.5648323370474 M555.49940467368,554.5648323370474 L522.775330188813,563.0170150991914 M522.775330188813,563.0170150991914 L488.6858206581273,569.4411378768432 M488.6858206581273,569.4411378768432 L453.60946725674097,573.764663734906 M453.60946725674097,573.764663734906 L417.9363784052564,575.938721602842 M417.9363784052564,575.938721602842 L382.0636215947436,575.938721602842 M382.0636215947436,575.938721602842 L346.39053274325914,573.764663734906 M346.39053274325914,573.764663734906 L311.3141793418728,569.4411378768432 M311.3141793418728,569.4411378768432 L277.2246698111871,563.0170150991912 M277.2246698111871,563.0170150991912 L244.50059532632,554.5648323370474 M244.50059532632,554.5648323370474 L213.50473033954023,544.1799076383779 M213.50473033954023,544.1799076383779 L184.57978872420105,531.9792228725926 M184.57978872420105,531.9792228725926 L158.0446251619636,518.099909127932 M158.1795579923043,558.833456197829 L134.33871393170455,543.4227219883039 M134.33871393170455,543.4227219883039 L113.43797465936638,526.6606776276728 M113.43797465936638,526.6606776276728 L95.70429005889974,508.7344435743754 M95.70429005889974,508.7344435743754 L81.32879736794246,489.8435463982652 M81.32879736794246,489.8435463982652 L70.4647118229849,470.19764938819065 M70.4647118229849,470.19764938819065 L63.22592131379042,450.01409098336666 M63.22592131379042,450.01409098336666 L59.685975732448696,429.51545563350885 M59.685975732448696,429.51545563350885 L59.87751274886574,408.92705764143153 M59.87751274886574,408.92705764143153 L63.79216183653,388.47440573514876 M63.79216183653,388.47440573514876 L71.38090943543318,368.3808047050541 M71.38090943543318,368.3808047050541 L82.55491123919609,348.86490768397493 M82.55491123919609,348.86490768397493 L97.18673493689619,330.1383719504113 M97.18673493689619,330.1383719504113 L115.11196198753225,312.40367771454277 M115.11196198753225,312.40367771454277 L136.131083925329,295.8519808324224 M136.131083925329,295.8519808324224 L160.01197592311027,280.66120860605326 M160.01197592311027,280.66120860605326 L186.49234973711017,266.99419236058793 M186.49234973711017,266.99419236058793 L215.2828153261064,254.99712471048116 M215.2828153261064,254.99712471048116 L246.06986996582054,244.79801730147008 M246.06986996582054,244.79801730147008 L278.5193627836475,236.50554244545836 M278.5193627836475,236.50554244545836 L312.27992711653934,230.20788540823568 M312.27992711653934,230.20788540823568 L346.98673094504454,225.9719397723304 M346.98673094504454,225.9719397723304 L382.26518258753043,223.84267050434315 M382.26518258753043,223.84267050434315 L417.73481741246957,223.84267050434315 M417.73481741246957,223.84267050434315 L453.01326905495546,225.9719397723304 M453.01326905495546,225.9719397723304 L487.72007288346066,230.20788540823568 M487.72007288346066,230.20788540823568 L521.4806372163524,236.50554244545836 M521.4806372163524,236.50554244545836 L553.9301300341795,244.79801730147008 M553.9301300341795,244.79801730147008 L584.7171846738936,254.99712471048127 M584.7171846738936,254.99712471048127 L613.5076502628899,266.99419236058804 M613.5076502628899,266.99419236058804 L639.9880240768895,280.6612086060531 M158.0446251619636,518.099909127932 L134.1905404676777,502.6976889564409 M134.1905404676777,502.6976889564409 L113.2782167902721,485.94491339079815 M113.2782167902721,485.94491339079815 L95.53472864914988,468.0286013331955 M95.53472864914988,468.0286013331955 L81.15131711768151,449.14817065024766 M81.15131711768151,449.14817065024766 L70.28127940504152,429.5131699419992 M70.28127940504152,429.5131699419992 L63.0385628737946,409.3408182572713 M63.0385628737946,409.3408182572713 L59.496753998159534,388.8535772394787 M59.496753998159534,388.8535772394787 L59.68850401098115,368.27663632546916 M59.68850401098115,368.27663632546916 L63.60543307780222,347.83537870865126 M63.60543307780222,347.83537870865126 L71.19849586577351,327.75298431550016 M71.19849586577351,327.75298431550016 L82.37879447888446,308.24798347651534 M82.37879447888446,308.24798347651534 L97.01882207161378,289.53191408547065 M97.01882207161378,289.53191408547065 L114.95406567148746,271.80714167078 M114.95406567148746,271.80714167078 L135.98490366721097,255.26471339328032 M135.98490366721097,255.26471339328032 L159.8790808401412,240.08245500731508 M159.8790808401412,240.08245500731508 L186.3741627283617,226.42310458742458 M186.3741627283617,226.42310458742458 L215.18059896179065,214.43277076651913 M215.18059896179065,214.43277076651913 L245.98471401282842,204.23939144937623 M245.98471401282842,204.23939144937623 L278.4521735910541,195.95157619878424 M278.4521735910541,195.95157619878424 L312.23141880786324,189.6574592593375 M312.23141880786324,189.6574592593375 L346.9574185613018,185.42389545057853 M346.9574185613018,185.42389545057853 L382.25537713056764,183.29582365393009 M382.25537713056764,183.29582365393009 L417.7446228694323,183.29582365393009 M417.7446228694323,183.29582365393009 L453.0425814386982,185.42389545057853 M453.0425814386982,185.42389545057853 L487.76858119213676,189.6574592593375 M487.76858119213676,189.6574592593375 L521.5478264089459,195.95157619878424 M521.5478264089459,195.95157619878424 L554.0152859871716,204.23939144937623 M554.0152859871716,204.23939144937623 L584.8194010382093,214.43277076651913 M584.8194010382093,214.43277076651913 L613.6258372716383,226.42310458742458 M613.6258372716383,226.42310458742458 L640.1209191598585,240.0824550073149 M157.01435060360802,541.070563724588 L156.87883324343161,500.34683083496054 M175.4764715917466,537.8418666634525 L175.35126190525858,497.1199186916799 M157.01435060360802,541.070563724588 L175.4764715917466,537.8418666634525 M156.87883324343161,500.34683083496054 L175.35126190525858,497.1199186916799 M186.55529537211828,534.8775255462774 L186.4362736187578,494.1572166275784 M175.4764715917466,537.8418666634525 L186.55529537211828,534.8775255462774 M175.35126190525858,497.1199186916799 L186.4362736187578,494.1572166275784 M192.34073068184637,532.7764052061341 L192.2249416580588,492.05725820737183 M186.55529537211828,534.8775255462774 L192.34073068184637,532.7764052061341 M186.4362736187578,494.1572166275784 L192.2249416580588,492.05725820737183 M203.27762119578523,539.1312632874763 L203.16791147544237,498.4086024616758 M192.34073068184637,532.7764052061341 L203.27762119578523,539.1312632874763 M192.2249416580588,492.05725820737183 L203.16791147544237,498.4086024616758 M199.63095332670338,542.4762416095027 L199.51919971011063,501.75173171912803 M203.27762119578523,539.1312632874763 L199.63095332670338,542.4762416095027 M203.16791147544237,498.4086024616758 L199.51919971011063,501.75173171912803 M194.47620853902737,548.8860998828955 L194.36155988536163,508.1580476483323 M199.63095332670338,542.4762416095027 L194.47620853902737,548.8860998828955 M199.51919971011063,501.75173171912803 L194.36155988536163,508.1580476483323 M188.83934078477904,559.5769460026452 L188.72151334821842,518.8429883560311 M194.47620853902737,548.8860998828955 L188.83934078477904,559.5769460026452 M194.36155988536163,508.1580476483323 L188.72151334821842,518.8429883560311 M194.94658500744427,562.5832856810439 L194.83215603165166,521.8476680173874 M188.83934078477904,559.5769460026452 L190.86051283076677,560.5888357002209 M190.86051283076677,560.5888357002209 L192.89633006754974,561.5909582486274 M192.89633006754974,561.5909582486274 L194.94658500744427,562.5832856810439 M188.72151334821842,518.8429883560311 L190.7438099876831,519.8543192856384 M190.7438099876831,519.8543192856384 L192.78076008336802,520.8558884901811 M192.78076008336802,520.8558884901811 L194.83215603165166,521.8476680173874 M212.25538404680722,557.6348081624433 L212.15062828434802,516.9019230562556 M194.94658500744427,562.5832856810439 L212.25538404680722,557.6348081624433 M194.83215603165166,521.8476680173874 L212.15062828434802,516.9019230562556 M222.34836973333887,553.6522249784737 L222.24925630883584,512.9215396016498 M212.25538404680722,557.6348081624433 L222.34836973333887,553.6522249784737 M212.15062828434802,516.9019230562556 L222.24925630883584,512.9215396016498 M227.4609685024504,551.0267605172323 L227.36471433161685,510.2975255460015 M222.34836973333887,553.6522249784737 L227.4609685024504,551.0267605172323 M222.24925630883584,512.9215396016498 L227.36471433161685,510.2975255460015 M240.07157435859688,556.2540082796563 L239.9823425393622,515.5218857862135 M227.4609685024504,551.0267605172323 L240.07157435859688,556.2540082796563 M227.36471433161685,510.2975255460015 L239.9823425393622,515.5218857862135 M237.4256711878603,559.902763829283 L237.3349540694654,519.1686262618716 M240.07157435859688,556.2540082796563 L237.4256711878603,559.902763829283 M239.9823425393622,515.5218857862135 L237.3349540694654,519.1686262618716 M234.1652318469303,566.7199000626665 L234.07267819707127,525.9819987246302 M237.4256711878603,559.902763829283 L234.1652318469303,566.7199000626665 M237.3349540694654,519.1686262618716 L234.07267819707127,525.9819987246302 M231.65001767062122,577.8076942253499 L231.55603187199563,537.0636742837578 M234.1652318469303,566.7199000626665 L231.65001767062122,577.8076942253499 M234.07267819707127,525.9819987246302 L231.55603187199563,537.0636742837578 M238.53719706430527,580.1911151409586 L238.44705036171356,539.445780438356 M231.65001767062122,577.8076942253499 L233.9341864959619,578.6132023984937 M233.9341864959619,578.6132023984937 L236.2299650217976,579.4076908486586 M236.2299650217976,579.4076908486586 L238.53719706430527,580.1911151409586 M231.55603187199563,537.0636742837578 L233.84147386017307,537.8687380969675 M233.84147386017307,537.8687380969675 L236.13853211396125,538.6627882855582 M236.13853211396125,538.6627882855582 L238.44705036171356,539.445780438356 M254.21299133109767,573.6555005267803 L254.13161111125584,532.9137714625258 M238.53719706430527,580.1911151409586 L254.21299133109767,573.6555005267803 M238.44705036171356,539.445780438356 L254.13161111125584,532.9137714625258 M263.04018554391064,568.7622718444768 L262.96374297195234,528.0232431789611 M254.21299133109767,573.6555005267803 L263.04018554391064,568.7622718444768 M254.13161111125584,532.9137714625258 L262.96374297195234,528.0232431789611 M267.3379793933752,565.6837008417244 L267.26394179773393,524.9463715027935 M263.04018554391064,568.7622718444768 L267.3379793933752,565.6837008417244 M262.96374297195234,528.0232431789611 L267.26394179773393,524.9463715027935 M281.2764793228104,569.6376477780127 L281.21021355146496,528.8981359702468 M267.3379793933752,565.6837008417244 L281.2764793228104,569.6376477780127 M267.26394179773393,524.9463715027935 L281.21021355146496,528.8981359702468 M279.7056512894803,573.4903175194434 L279.6385017088952,532.7486796019466 M281.2764793228104,569.6376477780127 L279.7056512894803,573.4903175194434 M281.21021355146496,528.8981359702468 L279.6385017088952,532.7486796019466 M278.4319549890789,580.5278777653809 L278.36408140624644,539.7823573091009 M279.7056512894803,573.4903175194434 L278.4319549890789,580.5278777653809 M279.6385017088952,532.7486796019466 L278.36408140624644,539.7823573091009 M279.111995303394,591.7080795454199 L279.0444808440426,550.9563941981949 M278.4319549890789,580.5278777653809 L279.111995303394,591.7080795454199 M278.36408140624644,539.7823573091009 L279.0444808440426,550.9563941981949 M286.58967795305546,593.4018793350781 L286.526336765761,552.6492603385725 M279.111995303394,591.7080795454199 L281.59631924598654,592.2846781204905 M281.59631924598654,592.2846781204905 L284.0889392061945,592.849296675405 M284.0889392061945,592.849296675405 L286.58967795305546,593.4018793350781 M279.0444808440426,550.9563941981949 L281.53019121260826,551.5326749332094 M281.53019121260826,551.5326749332094 L284.0242022968479,552.0969822616364 M284.0242022968479,552.0969822616364 L286.526336765761,552.6492603385725 M300.19716894291935,585.4565312839745 L300.1414397818301,544.7082926437779 M286.58967795305546,593.4018793350781 L300.19716894291935,585.4565312839745 M286.526336765761,552.6492603385725 L300.1414397818301,544.7082926437779 M307.5132845478061,579.7859979996126 L307.4616486274969,539.0408867586737 M300.19716894291935,585.4565312839745 L307.5132845478061,579.7859979996126 M300.1414397818301,544.7082926437779 L307.4616486274969,539.0408867586737 M310.8767033150317,576.338391755319 L310.8269498857482,535.5951824076733 M307.5132845478061,579.7859979996126 L310.8767033150317,576.338391755319 M307.4616486274969,539.0408867586737 L310.8269498857482,535.5951824076733 M325.75944868930753,578.9085706326682 L325.71800070894733,538.1639433957005 M310.8767033150317,576.338391755319 L325.75944868930753,578.9085706326682 M310.8269498857482,535.5951824076733 L325.71800070894733,538.1639433957005 M325.30806612611053,582.8594079040568 L325.26636165407626,542.1126015020145 M325.75944868930753,578.9085706326682 L325.30806612611053,582.8594079040568 M325.71800070894733,538.1639433957005 L325.26636165407626,542.1126015020145 M326.0581953845534,589.9239419905875 L326.01690180515493,549.1732401825163 M325.30806612611053,582.8594079040568 L326.0581953845534,589.9239419905875 M325.26636165407626,542.1126015020145 L326.01690180515493,549.1732401825163 M329.9176729749782,600.8887664103536 L329.8785230746894,560.1320215672597 M326.0581953845534,589.9239419905875 L329.9176729749782,600.8887664103536 M326.01690180515493,549.1732401825163 L329.8785230746894,560.1320215672597 M337.7794711747655,601.8454441917122 L337.7447121842011,561.0881722688089 M329.9176729749782,600.8887664103536 L332.5336124080008,601.2202845571605 M332.5336124080008,601.2202845571605 L335.15427561568526,601.539182588567 M335.15427561568526,601.539182588567 L337.7794711747655,601.8454441917122 M329.8785230746894,560.1320215672597 L332.49592350270586,560.4633570616238 M332.49592350270586,560.4633570616238 L335.11805038308574,560.7820793968867 M335.11805038308574,560.7820793968867 L337.7447121842011,561.0881722688089 M348.9404877482266,592.7076357653689 L348.91197086431134,551.9553994363764 M337.7794711747655,601.8454441917122 L348.9404877482266,592.7076357653689 M337.7447121842011,561.0881722688089 L348.91197086431134,551.9553994363764 M354.54210127794744,586.4151315103336 L354.516717261528,545.6663642817196 M348.9404877482266,592.7076357653689 L354.54210127794744,586.4151315103336 M348.91197086431134,551.9553994363764 L354.516717261528,545.6663642817196 M356.87751846434077,582.6930395152713 L356.85344100265996,541.9463248675504 M354.54210127794744,586.4151315103336 L356.87751846434077,582.6930395152713 M354.516717261528,545.6663642817196 L356.85344100265996,541.9463248675504 M372.2937572369643,583.8075421657584 L372.2782869712066,543.060212871442 M356.87751846434077,582.6930395152713 L372.2937572369643,583.8075421657584 M356.85344100265996,541.9463248675504 L372.2782869712066,543.060212871442 M372.9749806440313,587.7478610693447 L372.95988913178525,546.9983589974465 M372.2937572369643,583.8075421657584 L372.9749806440313,587.7478610693447 M372.2782869712066,543.060212871442 L372.95988913178525,546.9983589974465 M375.72933626272174,594.6448764786185 L375.7157803123985,553.8915723778489 M372.9749806440313,587.7478610693447 L375.72933626272174,594.6448764786185 M372.95988913178525,546.9983589974465 L375.7157803123985,553.8915723778489 M382.66325029426406,605.0920997022542 L382.6535644045188,564.3330392479704 M375.72933626272174,594.6448764786185 L382.66325029426406,605.0920997022542 M375.7157803123985,553.8915723778489 L382.6535644045188,564.3330392479704 M390.6916627153361,605.2847934967201 L390.6864622017966,564.5256269005281 M382.66325029426406,605.0920997022542 L385.3384198295292,605.1692333482208 M385.3384198295292,605.1692333482208 L388.0146167040898,605.2334724874181 M388.0146167040898,605.2334724874181 L390.6916627153361,605.2847934967201 M382.6535644045188,564.3330392479704 L385.33022851630085,564.4101304061212 M385.33022851630085,564.4101304061212 L388.007920549973,564.4743341603701 M388.007920549973,564.4743341603701 L390.6864622017966,564.5256269005281 M399.0962094933543,595.205553342382 L399.0957046894318,554.4519402280193 M390.6916627153361,605.2847934967201 L399.0962094933543,595.205553342382 M390.6864622017966,564.5256269005281 L399.0957046894318,554.4519402280193 M402.82772966489006,588.4640343118074 L402.82930877751363,547.7141373770619 M399.0962094933543,595.205553342382 L402.82772966489006,588.4640343118074 M399.0957046894318,554.4519402280193 L402.82930877751363,547.7141373770619 M404.0702423507637,584.5697729541218 L404.07251508903016,543.8220233123625 M402.82772966489006,588.4640343118074 L404.0702423507637,584.5697729541218 M402.82930877751363,547.7141373770619 L404.07251508903016,543.8220233123625 M419.59395286178244,584.1974045443039 L419.60489360461156,543.4498602503606 M404.0702423507637,584.5697729541218 L419.59395286178244,584.1974045443039 M404.07251508903016,543.8220233123625 L419.60489360461156,543.4498602503606 M421.38915293390255,588.0187409932673 L421.40109731183327,547.2690895696146 M419.59395286178244,584.1974045443039 L421.38915293390255,588.0187409932673 M419.60489360461156,543.4498602503606 L421.40109731183327,547.2690895696146 M426.07197813850377,594.558287767941 L426.0865401468197,553.8050313908564 M421.38915293390255,588.0187409932673 L426.07197813850377,594.558287767941 M421.40109731183327,547.2690895696146 L426.0865401468197,553.8050313908564 M435.88886768880724,604.2000364383755 L435.9089179969754,563.4414673757831 M426.07197813850377,594.558287767941 L435.88886768880724,604.2000364383755 M426.0865401468197,553.8050313908564 L435.9089179969754,563.4414673757831 M443.8616020420126,603.6233182683372 L443.88610615394276,562.8650669029396 M435.88886768880724,604.2000364383755 L438.54920336089714,604.0206081107162 M438.54920336089714,604.0206081107162 L441.2068543339894,603.8283581484388 M441.2068543339894,603.8283581484388 L443.8616020420126,603.6233182683372 M435.9089179969754,563.4414673757831 L438.57073983394577,563.2621378888659 M438.57073983394577,563.2621378888659 L441.22987544949734,563.0699938314024 M441.22987544949734,563.0699938314024 L443.88610615394276,562.8650669029396 M449.27692718944195,592.8802093498939 L449.30444862382257,552.1278778968604 M443.8616020420126,603.6233182683372 L449.27692718944195,592.8802093498939 M443.88610615394276,562.8650669029396 L449.30444862382257,552.1278778968604 M451.0351709556055,585.8752765349357 L451.06366894179257,545.1268069880739 M449.27692718944195,592.8802093498939 L451.0351709556055,585.8752765349357 M449.30444862382257,552.1278778968604 L451.06366894179257,545.1268069880739 M451.15042922509076,581.9160532908654 L451.17898849142136,541.169767172247 M451.0351709556055,585.8752765349357 L451.15042922509076,581.9160532908654 M451.06366894179257,545.1268069880739 L451.17898849142136,541.169767172247 M466.3525018925505,580.0672217631409 L466.389547199327,539.3219553993054 M451.15042922509076,581.9160532908654 L466.3525018925505,580.0672217631409 M451.17898849142136,541.169767172247 L466.389547199327,539.3219553993054 M469.2118858577888,583.6644495072085 L469.2505313754742,542.917199126174 M466.3525018925505,580.0672217631409 L469.2118858577888,583.6644495072085 M466.389547199327,539.3219553993054 L469.2505313754742,542.917199126174 M475.6933146194583,589.6665984431722 L475.73558605181375,548.9160385085197 M469.2118858577888,583.6644495072085 L475.6933146194583,589.6665984431722 M469.2505313754742,542.917199126174 L475.73558605181375,548.9160385085197 M488.1208156312055,598.2376074207364 L488.1700387704311,557.4823233739671 M475.6933146194583,589.6665984431722 L488.1208156312055,598.2376074207364 M475.73558605181375,548.9160385085197 L488.1700387704311,557.4823233739671 M495.81719120506807,596.9076852522187 L495.870711501386,556.1531340768697 M488.1208156312055,598.2376074207364 L490.692688604539,597.8066650320429 M490.692688604539,597.8066650320429 L493.2581973430117,597.3633443008725 M493.2581973430117,597.3633443008725 L495.81719120506807,596.9076852522187 M488.1700387704311,557.4823233739671 L490.74334776409387,557.0516184559624 M490.74334776409387,557.0516184559624 L493.3102889167325,556.6085420224513 M493.3102889167325,556.6085420224513 L495.870711501386,556.1531340768697 M498.09454489412707,585.7968473486665 L498.14932066859126,545.0484210492255 M495.81719120506807,596.9076852522187 L498.09454489412707,585.7968473486665 M495.870711501386,556.1531340768697 L498.14932066859126,545.0484210492255 M497.831648471762,578.7214226165677 L497.8862669181567,537.9768986166789 M498.09454489412707,585.7968473486665 L497.831648471762,578.7214226165677 M498.14932066859126,545.0484210492255 L497.8862669181567,537.9768986166789 M496.81693223663575,574.8061915237522 L496.8709784120204,534.0638275397469 M497.831648471762,578.7214226165677 L496.81693223663575,574.8061915237522 M497.8862669181567,537.9768986166789 L496.8709784120204,534.0638275397469 M511.27747510555685,571.5326667862855 L511.3395880586712,530.7921091490688 M496.81693223663575,574.8061915237522 L511.27747510555685,571.5326667862855 M496.8709784120204,534.0638275397469 L511.3395880586712,530.7921091490688 M515.121463925233,574.8069692480174 L515.1857282519159,534.0646048348988 M511.27747510555685,571.5326667862855 L515.121463925233,574.8069692480174 M511.3395880586712,530.7921091490688 L515.1857282519159,534.0646048348988 M523.2213159959008,580.1069870210208 L523.2901118403207,539.3616987228816 M515.121463925233,574.8069692480174 L523.2213159959008,580.1069870210208 M515.1857282519159,534.0646048348988 L523.2901118403207,539.3616987228816 M537.914087012427,587.372276093113 L537.9911012345451,546.6229811066037 M523.2213159959008,580.1069870210208 L537.914087012427,587.372276093113 M523.2901118403207,539.3616987228816 L537.9911012345451,546.6229811066037 M545.1213902970383,585.3264865146191 L545.2024247186721,544.578319585464 M537.914087012427,587.372276093113 L540.3263935394067,586.7019161217027 M540.3263935394067,586.7019161217027 L542.7288914119872,586.0199701900187 M542.7288914119872,586.0199701900187 L545.1213902970383,585.3264865146191 M537.9911012345451,546.6229811066037 L540.4047534152456,545.9529907606172 M540.4047534152456,545.9529907606172 L542.8085913900442,545.271420856674 M542.8085913900442,545.271420856674 L545.2024247186721,544.578319585464 M544.2001618291816,574.1540129299715 L544.2806573435781,533.4120087952983 M545.1213902970383,585.3264865146191 L544.2001618291816,574.1540129299715 M545.2024247186721,544.578319585464 L544.2806573435781,533.4120087952983 M541.9249458264984,567.2027601292211 L542.0041562642554,526.4645922555861 M544.2001618291816,574.1540129299715 L541.9249458264984,567.2027601292211 M544.2806573435781,533.4120087952983 L542.0041562642554,526.4645922555861 M539.8091282033947,563.4391302578099 L539.8871497691229,522.7030400708284 M541.9249458264984,567.2027601292211 L539.8091282033947,563.4391302578099 M542.0041562642554,526.4645922555861 L539.8871497691229,522.7030400708284 M553.1295128137976,558.8324331498657 L553.2149571948638,518.0988866449372 M539.8091282033947,563.4391302578099 L553.1295128137976,558.8324331498657 M539.8871497691229,522.7030400708284 L553.2149571948638,518.0988866449372 M557.8511495121033,561.6942130632681 L557.9392353784482,520.9590862921534 M553.1295128137976,558.8324331498657 L557.8511495121033,561.6942130632681 M553.2149571948638,518.0988866449372 L557.9392353784482,520.9590862921534 M567.344249192173,566.1472559588497 L567.4376438375162,525.4096707257956 M557.8511495121033,561.6942130632681 L567.344249192173,566.1472559588497 M557.9392353784482,520.9590862921534 L567.4376438375162,525.4096707257956 M583.8940371871807,571.9087739500778 L583.9966843648682,531.1680087585535 M567.344249192173,566.1472559588497 L583.8940371871807,571.9087739500778 M567.4376438375162,525.4096707257956 L583.9966843648682,531.1680087585535 M590.4136543869413,569.204430027708 L590.5199328957466,528.465157320931 M583.8940371871807,571.9087739500778 L586.0802948622388,571.0177814308422 M586.0802948622388,571.0177814308422 L588.2535569729637,570.1163160112758 M588.2535569729637,570.1163160112758 L590.4136543869413,569.204430027708 M583.9966843648682,531.1680087585535 L586.1841598580481,530.2775079394881 M586.1841598580481,530.2775079394881 L588.3586324440632,529.3765400241792 M588.3586324440632,529.3765400241792 L590.5199328957466,528.465157320931 M586.3228943725138,558.2775893410105 L586.4268586791829,517.5443492479486 M590.4136543869413,569.204430027708 L586.3228943725138,558.2775893410105 M590.5199328957466,528.465157320931 L586.4268586791829,517.5443492479486 M582.1003787565242,551.6413553167408 L582.2019686083487,510.9117808013871 M586.3228943725138,558.2775893410105 L582.1003787565242,551.6413553167408 M586.4268586791829,517.5443492479486 L582.2019686083487,510.9117808013871 M578.943035557238,548.1324985252816 L579.0428544466151,507.4048626962309 M582.1003787565242,551.6413553167408 L578.943035557238,548.1324985252816 M582.2019686083487,510.9117808013871 L579.0428544466151,507.4048626962309 M590.7572435220951,542.3211871822823 L590.8636358121047,501.5967629966526 M578.943035557238,548.1324985252816 L590.7572435220951,542.3211871822823 M579.0428544466151,507.4048626962309 L590.8636358121047,501.5967629966526 M596.2252518375202,544.6925000214269 L596.3347009123696,503.96676519677266 M590.7572435220951,542.3211871822823 L596.2252518375202,544.6925000214269 M590.8636358121047,501.5967629966526 L596.3347009123696,503.96676519677266 M606.8480114235906,548.1776815773976 L606.9633965467976,507.4500207817806 M596.2252518375202,544.6925000214269 L606.8480114235906,548.1776815773976 M596.3347009123696,503.96676519677266 L606.9633965467976,507.4500207817806 M624.7956655796943,552.2798919950781 L624.9210763890638,511.5499647206293 M606.8480114235906,548.1776815773976 L624.7956655796943,552.2798919950781 M606.9633965467976,507.4500207817806 L624.9210763890638,511.5499647206293 M630.4486939079368,548.9925727072571 L630.5772469528249,508.26446164209074 M624.7956655796943,552.2798919950781 L626.6958910311877,551.1931838397395 M626.6958910311877,551.1931838397395 L628.5802772875041,550.0973849129991 M628.5802772875041,550.0973849129991 L630.4486939079368,548.9925727072571 M624.9210763890638,511.5499647206293 L626.8223582069446,510.4638569237713 M626.8223582069446,510.4638569237713 L628.7077918992613,509.3686634140948 M628.7077918992613,509.3686634140948 L630.5772469528249,508.26446164209074 M623.3058726598783,538.610982730844 L623.4304059102002,497.888609540551 M630.4486939079368,548.9925727072571 L623.3058726598783,538.610982730844 M630.5772469528249,508.26446164209074 L623.4304059102002,497.888609540551 M617.2552084258067,532.4713304203785 L617.3763470547652,491.7523521391809 M623.3058726598783,538.610982730844 L617.2552084258067,532.4713304203785 M623.4304059102002,497.888609540551 L617.3763470547652,491.7523521391809 M613.1447644896451,529.3130613503392 L613.2636009516315,488.59582987413614 M617.2552084258067,532.4713304203785 L613.1447644896451,529.3130613503392 M617.3763470547652,491.7523521391809 L613.2636009516315,488.59582987413614 M623.1296355520536,522.4588941143242 L623.2540157071313,481.7454546475868 M613.1447644896451,529.3130613503392 L623.1296355520536,522.4588941143242 M613.2636009516315,488.59582987413614 L623.2540157071313,481.7454546475868 M629.192343282123,524.2756718431654 L629.3201093322633,483.5612271206408 M623.1296355520536,522.4588941143242 L629.192343282123,524.2756718431654 M623.2540157071313,481.7454546475868 L629.3201093322633,483.5612271206408 M640.6504608170483,526.6993947532469 L640.7846232043263,485.98360909738744 M629.192343282123,524.2756718431654 L640.6504608170483,526.6993947532469 M629.3201093322633,483.5612271206408 L640.7846232043263,485.98360909738744 M659.4992990259084,529.0334670051993 L659.6439788329193,488.31639018425346 M640.6504608170483,526.6993947532469 L659.4992990259084,529.0334670051993 M640.7846232043263,485.98360909738744 L659.6439788329193,488.31639018425346 M664.1315680346634,525.2547471601542 L664.2788153121611,484.5397607392352 M659.4992990259084,529.0334670051993 L661.0616084193778,527.7812962252493 M661.0616084193778,527.7812962252493 L662.6057267162244,526.5216899497545 M662.6057267162244,526.5216899497545 L664.1315680346634,525.2547471601542 M659.6439788329193,488.31639018425346 L661.2071542962074,487.0649120611635 M661.2071542962074,487.0649120611635 L662.7521284322021,485.8060026036473 M662.7521284322021,485.8060026036473 L664.2788153121611,484.5397607392352 M654.1386752537044,515.7018659091959 L654.280314800845,474.99216610777 M664.1315680346634,525.2547471601542 L654.1386752537044,515.7018659091959 M664.2788153121611,484.5397607392352 L654.280314800845,474.99216610777 M646.4294590479346,510.22599809894933 L646.5667814818147,469.5193299244954 M654.1386752537044,515.7018659091959 L646.4294590479346,510.22599809894933 M654.280314800845,474.99216610777 L646.5667814818147,469.5193299244954 M641.4805548719537,507.5041088061122 L641.6151095404191,466.79894790127486 M646.4294590479346,510.22599809894933 L641.4805548719537,507.5041088061122 M646.5667814818147,469.5193299244954 L641.6151095404191,466.79894790127486 M649.3646968961799,499.79727633721444 L649.503615436484,459.0963843781502 M641.4805548719537,507.5041088061122 L649.3646968961799,499.79727633721444 M641.6151095404191,466.79894790127486 L649.503615436484,459.0963843781502 M655.8544410989618,501.01105100608225 L655.9969797328233,460.3094865968289 M649.3646968961799,499.79727633721444 L655.8544410989618,501.01105100608225 M649.503615436484,459.0963843781502 L655.9969797328233,460.3094865968289 M667.831445399727,502.30949334095504 L667.9806618110799,461.6072096238531 M655.8544410989618,501.01105100608225 L667.831445399727,502.30949334095504 M655.9969797328233,460.3094865968289 L667.9806618110799,461.6072096238531 M687.06151974383,502.8160480499991 L687.2214519805268,462.1134837268719 M667.831445399727,502.30949334095504 L687.06151974383,502.8160480499991 M667.9806618110799,461.6072096238531 L687.2214519805268,462.1134837268719 M690.5477698120593,498.65080405259835 L690.7096259580674,457.95054729825523 M687.06151974383,502.8160480499991 L688.2436542624747,501.4331866786784 M688.2436542624747,501.4331866786784 L689.4057636584929,500.0447352603538 M689.4057636584929,500.0447352603538 L690.5477698120593,498.65080405259835 M687.2214519805268,462.1134837268719 L688.4042390464916,460.7313884101376 M688.4042390464916,460.7313884101376 L689.5669897596332,459.34370620153527 M689.5669897596332,459.34370620153527 L690.7096259580674,457.95054729825523 M677.9850764142269,490.18605738263824 L678.1398984438646,449.4904917700504 M690.5477698120593,498.65080405259835 L677.9850764142269,490.18605738263824 M690.7096259580674,457.95054729825523 L678.1398984438646,449.4904917700504 M668.8322222383122,485.5221817638162 L668.981927575423,444.82920178978935 M677.9850764142269,490.18605738263824 L668.8322222383122,485.5221817638162 M678.1398984438646,449.4904917700504 L668.981927575423,444.82920178978935 M663.1823253257356,483.3100936533977 L663.3288755351867,442.61834028540665 M668.8322222383122,485.5221817638162 L663.1823253257356,483.3100936533977 M668.981927575423,444.82920178978935 L663.3288755351867,442.61834028540665 M668.7534081101826,474.96367880146056 L668.903026401982,434.2765548712596 M663.1823253257356,483.3100936533977 L668.7534081101826,474.96367880146056 M663.3288755351867,442.61834028540665 L668.903026401982,434.2765548712596 M675.4913386784384,475.54281892502104 L675.644710484626,434.855373699559 M668.7534081101826,474.96367880146056 L675.4913386784384,475.54281892502104 M668.903026401982,434.2765548712596 L675.644710484626,434.855373699559 M687.6576002147095,475.68351565042593 L687.817745849382,434.99599237079656 M675.4913386784384,475.54281892502104 L687.6576002147095,475.68351565042593 M675.644710484626,434.855373699559 L687.817745849382,434.99599237079656 M706.7405425993225,474.35394832140105 L706.9113059466098,433.66716266838614 M687.6576002147095,475.68351565042593 L706.7405425993225,474.35394832140105 M687.817745849382,434.99599237079656 L706.9113059466098,433.66716266838614 M708.9877352924241,469.9172855709059 L709.1597288095808,429.2329617091655 M706.7405425993225,474.35394832140105 L707.5109344040651,472.8786127425013 M707.5109344040651,472.8786127425013 L708.2600200140209,471.3996963686319 M708.2600200140209,471.3996963686319 L708.9877352924241,469.9172855709059 M706.9113059466098,433.66716266838614 L707.6821197309245,432.19264564928983 M707.6821197309245,432.19264564928983 L708.4316154088301,430.7145498883282 M708.4316154088301,430.7145498883282 L709.1597288095808,429.2329617091655 M694.2053406990674,462.7689747776945 L694.3690738274944,422.0886185897861 M708.9877352924241,469.9172855709059 L694.2053406990674,462.7689747776945 M709.1597288095808,429.2329617091655 L694.3690738274944,422.0886185897861 M683.8627029172006,459.04229740499443 L684.0206640030951,418.36401032708307 M694.2053406990674,462.7689747776945 L683.8627029172006,459.04229740499443 M694.3690738274944,422.0886185897861 L684.0206640030951,418.36401032708307 M677.6679869964488,457.39905704148254 L677.8224939693965,416.7216824505637 M683.8627029172006,459.04229740499443 L677.6679869964488,457.39905704148254 M684.0206640030951,418.36401032708307 L677.8224939693965,416.7216824505637 M680.7782529306288,448.6429269893153 L680.9344532053213,407.9704160373781 M677.6679869964488,457.39905704148254 L680.7782529306288,448.6429269893153 M677.8224939693965,416.7216824505637 L680.9344532053213,407.9704160373781 M687.5794054953567,448.57340425588507 L687.7393890278788,407.90093193004094 M680.7782529306288,448.6429269893153 L687.5794054953567,448.57340425588507 M680.9344532053213,407.9704160373781 L687.7393890278788,407.90093193004094 M699.601500279428,447.55588435037765 L699.7681671969746,406.88397736460064 M687.5794054953567,448.57340425588507 L699.601500279428,447.55588435037765 M687.7393890278788,407.90093193004094 L699.7681671969746,406.88397736460064 M718.0153827142092,444.43218578291277 L718.1922780809193,403.7620145390186 M699.601500279428,447.55588435037765 L718.0153827142092,444.43218578291277 M699.7681671969746,406.88397736460064 L718.1922780809193,403.7620145390186 M718.9649791381953,439.84615312556895 L719.1423804692786,399.1785307341356 M718.0153827142092,444.43218578291277 L718.3539218672743,442.90498429795804 M718.3539218672743,442.90498429795804 L718.6704706519968,441.37626523215215 M718.6704706519968,441.37626523215215 L718.9649791381953,439.84615312556895 M718.1922780809193,403.7620145390186 L718.5309981514806,402.23566178020695 M718.5309981514806,402.23566178020695 L718.8477155995454,400.707792354893 M718.8477155995454,400.707792354893 L719.1423804692786,399.1785307341356 M702.3723668906345,434.2053345713386 L702.5405138345868,393.54084814389813 M718.9649791381953,439.84615312556895 L702.3723668906345,434.2053345713386 M719.1423804692786,399.1785307341356 L702.5405138345868,393.54084814389813 M691.1253718892991,431.5147866490004 L691.2872525534482,390.8517963487973 M702.3723668906345,434.2053345713386 L691.1253718892991,431.5147866490004 M702.5405138345868,393.54084814389813 L691.2872525534482,390.8517963487973 M684.5563952132652,430.483596812247 L684.7146187262631,389.8211799818765 M691.1253718892991,431.5147866490004 L684.5563952132652,430.483596812247 M691.2872525534482,390.8517963487973 L684.7146187262631,389.8211799818765 M685.1261801057967,421.55788663614635 L685.2846817349204,380.90043496112287 M684.5563952132652,430.483596812247 L685.1261801057967,421.55788663614635 M684.7146187262631,389.8211799818765 L685.2846817349204,380.90043496112287 M691.8046735670744,420.8435008412883 L691.9668846000213,380.1864466663163 M685.1261801057967,421.55788663614635 L691.8046735670744,420.8435008412883 M685.2846817349204,380.90043496112287 L691.9668846000213,380.1864466663163 M703.3545972614521,418.69906164617794 L703.5232188774771,378.04320077772087 M691.8046735670744,420.8435008412883 L703.3545972614521,418.69906164617794 M691.9668846000213,380.1864466663163 L703.5232188774771,378.04320077772087 M720.5982253883552,413.87217450033154 L720.7764084518401,373.2190001394269 M703.3545972614521,418.69906164617794 L720.5982253883552,413.87217450033154 M703.5232188774771,378.04320077772087 L720.7764084518401,373.2190001394269 M720.2275096791376,409.26230996158745 L720.4054642544321,368.6117019805105 M720.5982253883552,413.87217450033154 L720.4967702809388,412.33490991937754 M720.4967702809388,412.33490991937754 L720.3731837352541,410.79825488618786 M720.3731837352541,410.79825488618786 L720.2275096791376,409.26230996158745 M720.7764084518401,373.2190001394269 L720.6748894644066,371.68259130466555 M720.6748894644066,371.68259130466555 L720.5512267471754,370.14679175011054 M720.5512267471754,370.14679175011054 L720.4054642544321,368.6117019805105 M702.281776192177,405.27789835711064 L702.4497397737207,364.62950907715737 M720.2275096791376,409.26230996158745 L702.281776192177,405.27789835711064 M720.4054642544321,368.6117019805105 L702.4497397737207,364.62950907715737 M690.4392872810375,403.6936243475393 L690.6006635577921,363.0461173972449 M702.281776192177,405.27789835711064 L690.4392872810375,403.6936243475393 M702.4497397737207,364.62950907715737 L690.6006635577921,363.0461173972449 M683.6760223230391,403.30075406815445 L683.8336390436916,362.6534659308888 M690.4392872810375,403.6936243475393 L683.6760223230391,403.30075406815445 M690.6006635577921,363.0461173972449 L683.8336390436916,362.6534659308888 M681.6954522139694,394.44916755436986 L681.8519305644056,353.80681063976846 M683.6760223230391,403.30075406815445 L681.6954522139694,394.44916755436986 M683.8336390436916,362.6534659308888 L681.8519305644056,353.80681063976846 M688.0695313361333,393.1113247109269 L688.2295445477532,352.46971331623814 M681.6954522139694,394.44916755436986 L688.0695313361333,393.1113247109269 M681.8519305644056,353.80681063976846 L688.2295445477532,352.46971331623814 M698.8336836599541,389.90184550348 L698.9996614201114,349.2620228295564 M688.0695313361333,393.1113247109269 L698.8336836599541,389.90184550348 M688.2295445477532,352.46971331623814 L698.9996614201114,349.2620228295564 M714.4402391999898,383.5087270169361 L714.6148545573569,342.87246831593365 M698.8336836599541,389.90184550348 L714.4402391999898,383.5087270169361 M698.9996614201114,349.2620228295564 L714.6148545573569,342.87246831593365 M712.7626129641677,379.00059674588056 L712.9362752565842,338.36685193964917 M714.4402391999898,383.5087270169361 L713.9026105855012,382.0032970952859 M713.9026105855012,382.0032970952859 L713.3433917430156,380.50055113236374 M713.3433917430156,380.50055113236374 L712.7626129641677,379.00059674588056 M714.6148545573569,342.87246831593365 L714.0769201994194,341.3678778072117 M714.0769201994194,341.3678778072117 L713.5173836623693,339.865969829342 M713.5173836623693,339.865969829342 L712.9362752565842,338.36685193964917 M693.9554427131528,376.7757011698287 L694.1186523265104,336.14319727256463 M712.7626129641677,379.00059674588056 L693.9554427131528,376.7757011698287 M712.9362752565842,338.36685193964917 L694.1186523265104,336.14319727256463 M681.8411083494047,376.3373956523098 L681.9975899768094,335.70513623245256 M693.9554427131528,376.7757011698287 L681.8411083494047,376.3373956523098 M694.1186523265104,336.14319727256463 L681.9975899768094,335.70513623245256 M675.0680287784057,376.59165502614 L675.220750972918,335.9592537851524 M681.8411083494047,376.3373956523098 L675.0680287784057,376.59165502614 M681.9975899768094,335.70513623245256 L675.220750972918,335.9592537851524 M670.5965529238674,368.05480700277394 L670.7467573511284,327.42716853033187 M675.0680287784057,376.59165502614 L670.5965529238674,368.05480700277394 M675.220750972918,335.9592537851524 L670.7467573511284,327.42716853033187 M676.4936009272525,366.13172796622354 L676.6470706382382,325.5051626989046 M670.5965529238674,368.05480700277394 L676.4936009272525,366.13172796622354 M670.7467573511284,327.42716853033187 L676.6470706382382,325.5051626989046 M686.1811431997576,361.9477415403659 L686.339971838835,321.32351160199715 M676.4936009272525,366.13172796622354 L686.1811431997576,361.9477415403659 M676.6470706382382,325.5051626989046 L686.339971838835,321.32351160199715 M699.730438948509,354.16718850124323 L699.8967518900855,313.54730276140333 M686.1811431997576,361.9477415403659 L699.730438948509,354.16718850124323 M686.339971838835,321.32351160199715 L699.8967518900855,313.54730276140333 M696.794640063734,349.88299656676446 L696.9593046659745,309.26550365036115 M699.730438948509,354.16718850124323 L698.7723354780624,352.73439626471276 M698.7723354780624,352.73439626471276 L697.7937036347129,351.3062991923815 M697.7937036347129,351.3062991923815 L696.794640063734,349.88299656676446 M699.8967518900855,313.54730276140333 L698.9381102815628,312.1153107114662 M698.9381102815628,312.1153107114662 L697.9589289733694,310.6880112656368 M697.9589289733694,310.6880112656368 L696.9593046659745,309.26550365036115 M677.6387723887349,349.4725207675551 L677.7928073928933,308.85525714095616 M696.794640063734,349.88299656676446 L677.6387723887349,349.4725207675551 M696.9593046659745,309.26550365036115 L677.7928073928933,308.85525714095616 M665.5821304678444,350.18868408126957 L665.7294792956939,309.5710204126188 M677.6387723887349,349.4725207675551 L665.5821304678444,350.18868408126957 M677.7928073928933,308.85525714095616 L665.7294792956939,309.5710204126188 M658.983187280175,351.0812735186524 L659.1268784340341,310.4631112798003 M665.5821304678444,350.18868408126957 L658.983187280175,351.0812735186524 M665.7294792956939,309.5710204126188 L659.1268784340341,310.4631112798003 M652.1474554092841,343.0902444941659 L652.2873232633559,302.4765466349493 M658.983187280175,351.0812735186524 L652.1474554092841,343.0902444941659 M659.1268784340341,310.4631112798003 L652.2873232633559,302.4765466349493 M657.408472779439,340.63582980603684 L657.5512493460612,300.023503553803 M652.1474554092841,343.0902444941659 L657.408472779439,340.63582980603684 M652.2873232633559,302.4765466349493 L657.5512493460612,300.023503553803 M665.7589949875601,335.5938100036357 L665.9063829535465,294.9843019707142 M657.408472779439,340.63582980603684 L665.7589949875601,335.5938100036357 M657.5512493460612,300.023503553803 L665.9063829535465,294.9843019707142 M676.8883878719708,326.64125403603816 L677.0419104173328,286.0367519062137 M665.7589949875601,335.5938100036357 L676.8883878719708,326.64125403603816 M665.9063829535465,294.9843019707142 L677.0419104173328,286.0367519062137 M672.7768787744066,322.69656226169093 L672.9281053026598,282.0942666150237 M676.8883878719708,326.64125403603816 L675.5367185876969,325.31976717286204 M675.5367185876969,325.31976717286204 L674.1661903518907,324.00484083166145 M674.1661903518907,324.00484083166145 L672.7768787744066,322.69656226169093 M677.0419104173328,286.0367519062137 L675.689486153712,284.71600417069055 M675.689486153712,284.71600417069055 L674.3181925645359,283.40181334040733 M674.3181925645359,283.40181334040733 L672.9281053026598,282.0942666150237 M653.7920685908942,324.10624793340105 L653.9327754491634,283.5031637176854 M672.7768787744066,322.69656226169093 L653.7920685908942,324.10624793340105 M672.9281053026598,282.0942666150237 L653.9327754491634,283.5031637176854 M642.1196779959469,325.9541856585061 L642.253920276819,285.35006780982803 M653.7920685908942,324.10624793340105 L642.1196779959469,325.9541856585061 M653.9327754491634,283.5031637176854 L642.253920276819,285.35006780982803 M635.8732967348976,327.4591581197989 L636.0040811335188,286.8541985503928 M642.1196779959469,325.9541856585061 L635.8732967348976,327.4591581197989 M642.253920276819,285.35006780982803 L636.0040811335188,286.8541985503928 M626.8632109703938,320.229325772895 L626.9889746125641,279.62841042767405 M635.8732967348976,327.4591581197989 L626.8632109703938,320.229325772895 M636.0040811335188,286.8541985503928 L626.9889746125641,279.62841042767405 M631.346992398339,317.3115711863253 L631.4752313988612,276.7122884246834 M626.8632109703938,320.229325772895 L631.346992398339,317.3115711863253 M626.9889746125641,279.62841042767405 L631.4752313988612,276.7122884246834 M638.1371447046201,311.550599723135 L638.2691267209403,270.95454118178816 M631.346992398339,317.3115711863253 L638.1371447046201,311.550599723135 M631.4752313988612,276.7122884246834 L638.2691267209403,270.95454118178816 M646.5506420992425,301.6720564547206 L646.6872500615159,261.08152894592877 M638.1371447046201,311.550599723135 L646.5506420992425,301.6720564547206 M638.2691267209403,270.95454118178816 L646.6872500615159,261.08152894592877 M641.3771087034361,298.17280350058013 L641.5108372859326,257.5842359474765 M646.5506420992425,301.6720564547206 L644.8428229763234,300.49737038965293 M644.8428229763234,300.49737038965293 L643.1182963824258,299.3309138050748 M643.1182963824258,299.3309138050748 L641.3771087034361,298.17280350058013 M646.6872500615159,261.08152894592877 L644.9784803017229,259.90750078913715 M644.9784803017229,259.90750078913715 L643.2529939057766,258.74169754522217 M643.2529939057766,258.74169754522217 L641.5108372859326,257.5842359474765 M623.0763341169916,301.35945370871025 L623.1999344519922,260.7691012757372 M641.3771087034361,298.17280350058013 L623.0763341169916,301.35945370871025 M641.5108372859326,257.5842359474765 L623.1999344519922,260.7691012757372 M612.1030843240364,304.2861753403019 L612.2206141301629,263.6941838882866 M623.0763341169916,301.35945370871025 L612.1030843240364,304.2861753403019 M623.1999344519922,260.7691012757372 L612.2206141301629,263.6941838882866 M606.3775792890668,306.3612021806002 L606.491943011519,265.76804883227817 M612.1030843240364,304.2861753403019 L606.3775792890668,306.3612021806002 M612.2206141301629,263.6941838882866 L606.491943011519,265.76804883227817 M595.4406873667534,300.0867146178044 L595.5489717826266,259.4970750238041 M606.3775792890668,306.3612021806002 L595.4406873667534,300.0867146178044 M606.491943011519,265.76804883227817 L595.5489717826266,259.4970750238041 M599.0274245659493,296.7857808308124 L599.1376862312948,256.1979902616199 M595.4406873667534,300.0867146178044 L599.0274245659493,296.7857808308124 M595.5489717826266,259.4970750238041 L599.1376862312948,256.1979902616199 M604.0765942323583,290.46367424891656 L604.189633528,249.87942594485955 M599.0274245659493,296.7857808308124 L604.0765942323583,290.46367424891656 M599.1376862312948,256.1979902616199 L604.189633528,249.87942594485955 M609.5521127481497,279.92897339053013 L609.6681513941811,239.35063035843672 M604.0765942323583,290.46367424891656 L609.5521127481497,279.92897339053013 M604.189633528,249.87942594485955 L609.6681513941811,239.35063035843672 M603.4581946351324,276.96874469973073 L603.5708496386295,236.39206164345262 M609.5521127481497,279.92897339053013 L607.5349398629527,278.9324961275391 M607.5349398629527,278.9324961275391 L605.5035654022169,277.9457451046991 M605.5035654022169,277.9457451046991 L603.4581946351324,276.96874469973073 M609.6681513941811,239.35063035843672 L607.6498583624133,238.3547118496269 M607.6498583624133,238.3547118496269 L605.6173559830091,237.3685141569074 M605.6173559830091,237.3685141569074 L603.5708496386295,236.39206164345262 M586.334085103234,281.84183653107175 L586.437272279851,241.26242098475964 M603.4581946351324,276.96874469973073 L586.334085103234,281.84183653107175 M603.5708496386295,236.39206164345262 L586.437272279851,241.26242098475964 M576.3550507092936,285.76565018859503 L576.452722269054,245.18403496560995 M586.334085103234,281.84183653107175 L576.3550507092936,285.76565018859503 M586.437272279851,241.26242098475964 L576.452722269054,245.18403496560995 M571.3041831035013,288.35329975308434 L571.3990640586071,247.77023415846566 M576.3550507092936,285.76565018859503 L571.3041831035013,288.35329975308434 M576.452722269054,245.18403496560995 L571.3990640586071,247.77023415846566 M558.7387757529451,283.20206831947775 L558.8266846181679,242.6218901788497 M571.3041831035013,288.35329975308434 L558.7387757529451,283.20206831947775 M571.3990640586071,247.77023415846566 L558.8266846181679,242.6218901788497 M561.3330427976014,279.60810625869556 L561.422379538828,239.02994314297018 M558.7387757529451,283.20206831947775 L561.3330427976014,279.60810625869556 M558.8266846181679,242.6218901788497 L561.422379538828,239.02994314297018 M564.507723822509,272.89715578794517 L564.5988017251702,232.32275634801846 M561.3330427976014,279.60810625869556 L564.507723822509,272.89715578794517 M561.422379538828,239.02994314297018 L564.5988017251702,232.32275634801846 M566.9024136571535,261.9926646837903 L566.9947896747625,221.42438368453273 M564.507723822509,272.89715578794517 L566.9024136571535,261.9926646837903 M564.5988017251702,232.32275634801846 L566.9947896747625,221.42438368453273 M560.0537708899161,259.6503582488915 L560.1423506655917,219.08339197424937 M566.9024136571535,261.9926646837903 L564.6306953453002,261.2009839635598 M564.6306953453002,261.2009839635598 L562.3477635682711,260.42020153352223 M562.3477635682711,260.42020153352223 L560.0537708899161,259.6503582488915 M566.9947896747625,221.42438368453273 L564.7218120454696,220.6331473119903 M564.7218120454696,220.6331473119903 L562.4376148265299,219.85280313139415 M562.4376148265299,219.85280313139415 L560.1423506655917,219.08339197424937 M544.5659951161088,266.0746785174972 L544.6460174987799,225.5041067031445 M560.0537708899161,259.6503582488915 L544.5659951161088,266.0746785174972 M560.1423506655917,219.08339197424937 L544.6460174987799,225.5041067031445 M535.8487811813355,270.8875628575079 L535.9239882218653,230.31429071585762 M544.5659951161088,266.0746785174972 L535.8487811813355,270.8875628575079 M544.6460174987799,225.5041067031445 L535.9239882218653,230.31429071585762 M531.6078299142424,273.91689492379084 L531.6806951913904,233.34192349943558 M535.8487811813355,270.8875628575079 L531.6078299142424,273.91689492379084 M535.9239882218653,230.31429071585762 L531.6806951913904,233.34192349943558 M517.7548306184664,270.0263725068247 L517.8200191518283,229.45358349479667 M531.6078299142424,273.91689492379084 L517.7548306184664,270.0263725068247 M531.6806951913904,233.34192349943558 L517.8200191518283,229.45358349479667 M519.2879130570144,266.2371076441427 L519.3539434234142,225.6664446854778 M517.7548306184664,270.0263725068247 L519.2879130570144,266.2371076441427 M517.8200191518283,229.45358349479667 L519.3539434234142,225.6664446854778 M520.5049612049021,259.3194536498798 L520.5716525756135,218.7526731237336 M519.2879130570144,266.2371076441427 L520.5049612049021,259.3194536498798 M519.3539434234142,225.6664446854778 L520.5716525756135,218.7526731237336 M519.7582832845809,248.34058754147483 L519.8245414233869,207.77997172882786 M520.5049612049021,259.3194536498798 L519.7582832845809,248.34058754147483 M520.5716525756135,218.7526731237336 L519.8245414233869,207.77997172882786 M512.3401718707145,246.67845012025495 L512.4023229838708,206.11876792909538 M519.7582832845809,248.34058754147483 L517.293511678463,247.77473313419495 M517.293511678463,247.77473313419495 L514.820750601399,247.2206697721709 M514.820750601399,247.2206697721709 L512.3401718707145,246.67845012025495 M519.8245414233869,207.77997172882786 L517.3584051345298,207.2144351521696 M517.3584051345298,207.2144351521696 L514.8842750175768,206.6606830073675 M514.8842750175768,206.6606830073675 L512.4023229838708,206.11876792909538 M498.9036530666233,254.47791665066018 L498.9583822873684,213.91385423149976 M512.3401718707145,246.67845012025495 L498.9036530666233,254.47791665066018 M512.4023229838708,206.11876792909538 L498.9583822873684,213.91385423149976 M491.6816282575302,260.0484443402437 L491.73236887338027,219.481254610158 M498.9036530666233,254.47791665066018 L491.6816282575302,260.0484443402437 M498.9583822873684,213.91385423149976 L491.73236887338027,219.481254610158 M488.3640034600234,263.43692305027224 L488.41291251112705,222.86783147926246 M491.6816282575302,260.0484443402437 L488.3640034600234,263.43692305027224 M491.73236887338027,219.481254610158 L488.41291251112705,222.86783147926246 M473.59779598312605,260.9107033834329 L473.63852918178895,220.34302966280086 M488.3640034600234,263.43692305027224 L473.59779598312605,260.9107033834329 M488.41291251112705,222.86783147926246 L473.63852918178895,220.34302966280086 M474.02941364401835,257.0288121015715 L474.0703813539272,216.46331748505105 M473.59779598312605,260.9107033834329 L474.02941364401835,257.0288121015715 M473.63852918178895,220.34302966280086 L474.0703813539272,216.46331748505105 M473.2578855910771,250.09170396504896 L473.2984186102842,209.53010464226668 M474.02941364401835,257.0288121015715 L473.2578855910771,250.09170396504896 M474.0703813539272,216.46331748505105 L473.2984186102842,209.53010464226668 M469.39287877354633,239.3351686724252 L469.43126196261585,198.77961220217932 M473.2578855910771,250.09170396504896 L469.39287877354633,239.3351686724252 M473.2984186102842,209.53010464226668 L469.43126196261585,198.77961220217932 M461.6052310313035,238.39726989190012 L461.6393057705959,197.84224048507593 M469.39287877354633,239.3351686724252 L466.8014749137889,239.01014702200405 M466.8014749137889,239.01014702200405 L464.2055308337063,238.69750919204176 M464.2055308337063,238.69750919204176 L461.6052310313035,238.39726989190012 M469.43126196261585,198.77961220217932 L466.8384243929494,198.45477319853046 M466.8384243929494,198.45477319853046 L464.24104412938766,198.1423110592484 M464.24104412938766,198.1423110592484 L461.6393057705959,197.84224048507593 M450.57961229330147,247.3596792342405 L450.6075954984486,206.79961438698805 M461.6052310313035,238.39726989190012 L450.57961229330147,247.3596792342405 M461.6393057705959,197.84224048507593 L450.6075954984486,206.79961438698805 M445.04600351733114,253.53656062076396 L445.0709294812467,212.97302677482045 M450.57961229330147,247.3596792342405 L445.04600351733114,253.53656062076396 M450.6075954984486,206.79961438698805 L445.0709294812467,212.97302677482045 M442.74036894862496,257.192243666035 L442.7640214782693,216.626657297787 M445.04600351733114,253.53656062076396 L442.74036894862496,257.192243666035 M445.0709294812467,212.97302677482045 L442.7640214782693,216.626657297787 M427.45907615861285,256.0974710795748 L427.4742715602586,215.53249934050174 M442.74036894862496,257.192243666035 L427.45907615861285,256.0974710795748 M442.7640214782693,216.626657297787 L427.4742715602586,215.53249934050174 M426.7782108774948,252.22796795021927 L426.79302792362034,211.66516892629838 M427.45907615861285,256.0974710795748 L426.7782108774948,252.22796795021927 M427.4742715602586,215.53249934050174 L426.79302792362034,211.66516892629838 M424.040024744874,245.45888249233718 L424.053324210085,204.89988538489465 M426.7782108774948,252.22796795021927 L424.040024744874,245.45888249233718 M426.79302792362034,211.66516892629838 L424.053324210085,204.89988538489465 M417.16228971387307,235.21506856702834 L417.17178159255917,194.66182763541903 M424.040024744874,245.45888249233718 L417.16228971387307,235.21506856702834 M424.053324210085,204.89988538489465 L417.17178159255917,194.66182763541903 M409.21457120777904,235.0262353910381 L409.21966744722886,194.4731005979768 M417.16228971387307,235.21506856702834 L414.51397984330873,235.13947982007795 M414.51397984330873,235.13947982007795 L411.8646833808562,235.07652779944365 M411.8646833808562,235.07652779944365 L409.21457120777904,235.0262353910381 M417.17178159255917,194.66182763541903 L414.52200701519956,194.58628137493986 M414.52200701519956,194.58628137493986 L411.8712453086727,194.52336473813364 M411.8712453086727,194.52336473813364 L409.21966744722886,194.4731005979768 M400.8951747883684,244.90882769153137 L400.8956700110672,204.3501395883725 M409.21457120777904,235.0262353910381 L400.8951747883684,244.90882769153137 M409.21966744722886,194.4731005979768 L400.8956700110672,204.3501395883725 M397.1982035725889,251.52484329987675 L397.1966532993164,210.96243912731688 M400.8951747883684,244.90882769153137 L397.1982035725889,251.52484329987675 M400.8956700110672,204.3501395883725 L397.1966532993164,210.96243912731688 M395.9662348166087,255.34881023862948 L395.96400264315116,214.7842588350246 M397.1982035725889,251.52484329987675 L395.9662348166087,255.34881023862948 M397.1966532993164,210.96243912731688 L395.96400264315116,214.7842588350246 M380.58125457447534,255.7145416684492 L380.570508672859,215.14978492288412 M395.9662348166087,255.34881023862948 L380.58125457447534,255.7145416684492 M395.96400264315116,214.7842588350246 L380.570508672859,215.14978492288412 M378.80649657370856,251.96201700935347 L378.79476977000894,211.39936733284782 M380.58125457447534,255.7145416684492 L378.80649657370856,251.96201700935347 M380.570508672859,215.14978492288412 L378.79476977000894,211.39936733284782 M374.1756572357691,245.54383375223028 L374.1613706136085,204.98478892253814 M378.80649657370856,251.96201700935347 L374.1756572357691,245.54383375223028 M378.79476977000894,211.39936733284782 L374.1613706136085,204.98478892253814 M364.4705666572309,236.0893106929183 L364.4509160637503,195.5355783851344 M374.1756572357691,245.54383375223028 L364.4705666572309,236.0893106929183 M374.1613706136085,204.98478892253814 L364.4509160637503,195.5355783851344 M356.57632498811364,236.65455245891843 L356.55230787983373,196.10050246393718 M364.4705666572309,236.0893106929183 L361.8365040500037,236.26516470359633 M361.8365040500037,236.26516470359633 L359.2050198074459,236.45358872615506 M359.2050198074459,236.45358872615506 L356.57632498811364,236.65455245891843 M364.4509160637503,195.5355783851344 L361.81539650900186,195.71133355818378 M361.81539650900186,195.71133355818378 L359.18245672308865,195.89965167926132 M359.18245672308865,195.89965167926132 L356.55230787983373,196.10050246393718 M351.1866749120783,247.19033596959926 L351.15966903225234,206.63036624355283 M356.57632498811364,236.65455245891843 L351.1866749120783,247.19033596959926 M356.55230787983373,196.10050246393718 L351.15966903225234,206.63036624355283 M349.42578041907996,254.0666921493876 L349.3977950387713,213.50286063026184 M351.1866749120783,247.19033596959926 L349.42578041907996,254.0666921493876 M351.15966903225234,206.63036624355283 L349.3977950387713,213.50286063026184 M349.3006845342539,257.95555314243296 L349.2726269332938,217.38953825716519 M349.42578041907996,254.0666921493876 L349.3006845342539,257.95555314243296 M349.3977950387713,213.50286063026184 L349.2726269332938,217.38953825716519 M334.22609249645797,259.7720995270521 L334.18969062082107,219.20506491554676 M349.3006845342539,257.95555314243296 L334.22609249645797,259.7720995270521 M349.2726269332938,217.38953825716519 L334.18969062082107,219.20506491554676 M331.40501939837776,256.2380231649888 L331.3670599163723,215.6729725148761 M334.22609249645797,259.7720995270521 L331.40501939837776,256.2380231649888 M334.18969062082107,219.20506491554676 L331.3670599163723,215.6729725148761 M325.00575915932217,250.34431249236385 L324.9642651401305,209.78257130032677 M331.40501939837776,256.2380231649888 L325.00575915932217,250.34431249236385 M331.3670599163723,215.6729725148761 L324.9642651401305,209.78257130032677 M312.73356139478074,241.93479488980077 L312.68528837760977,201.3777776682565 M325.00575915932217,250.34431249236385 L312.73356139478074,241.93479488980077 M324.9642651401305,209.78257130032677 L312.68528837760977,201.3777776682565 M305.1049711358784,243.23914745337254 L305.05247634287434,202.68139738277873 M312.73356139478074,241.93479488980077 L310.1845278209112,242.35743123243057 M310.1845278209112,242.35743123243057 L307.6416161600123,242.79222792288496 M307.6416161600123,242.79222792288496 L305.1049711358784,243.23914745337254 M312.68528837760977,201.3777776682565 L310.13484418217723,201.80017654746217 M310.13484418217723,201.80017654746217 L307.5905252363925,202.23472894771515 M307.5905252363925,202.23472894771515 L305.05247634287434,202.68139738277873 M302.79103513672857,254.14371131101535 L302.7372441809368,213.57983654571183 M305.1049711358784,243.23914745337254 L302.79103513672857,254.14371131101535 M305.05247634287434,202.68139738277873 L302.7372441809368,213.57983654571183 M303.014368367514,261.09462673623 L302.96069074152126,220.52684978137347 M302.79103513672857,254.14371131101535 L303.014368367514,261.09462673623 M302.7372441809368,213.57983654571183 L302.96069074152126,220.52684978137347 M303.9999317550816,264.9432522307304 L303.94679397959237,224.37331531902754 M303.014368367514,261.09462673623 L303.9999317550816,264.9432522307304 M302.96069074152126,220.52684978137347 L303.94679397959237,224.37331531902754 M289.6418050168101,268.162342662433 L289.5807143554767,227.59059945229086 M303.9999317550816,264.9432522307304 L289.6418050168101,268.162342662433 M303.94679397959237,224.37331531902754 L289.5807143554767,227.59059945229086 M285.84984390779596,264.94248757476714 L285.78665973147247,224.37255109216602 M289.6418050168101,268.162342662433 L285.84984390779596,264.94248757476714 M289.5807143554767,227.59059945229086 L285.78665973147247,224.37255109216602 M277.85343826284145,259.7330248364992 L277.78583760865695,219.16601215868684 M285.84984390779596,264.94248757476714 L277.85343826284145,259.7330248364992 M285.78665973147247,224.37255109216602 L277.78583760865695,219.16601215868684 M263.3426447164113,252.5967316284617 L263.2670280566947,212.03372552515881 M277.85343826284145,259.7330248364992 L263.3426447164113,252.5967316284617 M277.78583760865695,219.16601215868684 L263.2670280566947,212.03372552515881 M256.1850736382327,254.60562958798906 L256.1054920835163,214.04149545984342 M263.3426447164113,252.5967316284617 L260.94726871837247,253.2549539661357 M260.94726871837247,253.2549539661357 L258.5613498424721,253.92460156065982 M258.5613498424721,253.92460156065982 L256.1850736382327,254.60562958798906 M263.2670280566947,212.03372552515881 L260.8703252324814,212.69157824810094 M260.8703252324814,212.69157824810094 L258.48308469097475,213.3608498257223 M258.48308469097475,213.3608498257223 L256.1054920835163,214.04149545984342 M257.0114270574914,265.58449480433524 L256.9322788996494,225.01419805300645 M256.1850736382327,254.60562958798906 L257.0114270574914,265.58449480433524 M256.1054920835163,214.04149545984342 L256.9322788996494,225.01419805300645 M259.21445514404377,272.4220051418231 L259.13651178375227,231.8478722306238 M257.0114270574914,265.58449480433524 L259.21445514404377,272.4220051418231 M256.9322788996494,225.01419805300645 L259.13651178375227,231.8478722306238 M261.28496402309725,276.1262036019016 L261.20815914799294,235.54999305706608 M259.21445514404377,272.4220051418231 L261.28496402309725,276.1262036019016 M259.13651178375227,231.8478722306238 L261.20815914799294,235.54999305706608 M248.03083253233189,280.66221620832476 L247.94667851774753,240.08346204463191 M261.28496402309725,276.1262036019016 L248.03083253233189,280.66221620832476 M261.20815914799294,235.54999305706608 L247.94667851774753,240.08346204463191 M243.3693025641328,277.844080211071 L243.28257390699986,237.26690627452655 M248.03083253233189,280.66221620832476 L243.3693025641328,277.844080211071 M247.94667851774753,240.08346204463191 L243.28257390699986,237.26690627452655 M233.98971689308541,273.4606892338521 L233.89780569213187,232.88597369706568 M243.3693025641328,277.844080211071 L233.98971689308541,273.4606892338521 M243.28257390699986,237.26690627452655 L233.89780569213187,232.88597369706568 M217.6288595947941,267.7924315332614 L217.5279059650879,227.22089587191886 M233.98971689308541,273.4606892338521 L217.6288595947941,267.7924315332614 M233.89780569213187,232.88597369706568 L217.5279059650879,227.22089587191886 M211.13553233979795,270.45255968397987 L211.03097661384766,229.8795315772207 M217.6288595947941,267.7924315332614 L215.4517890013407,268.668770207377 M215.4517890013407,268.668770207377 L213.287291100338,269.555495742022 M213.287291100338,269.555495742022 L211.13553233979795,270.45255968397987 M217.5279059650879,227.22089587191886 L215.34962776972918,228.09674285889233 M215.34962776972918,228.09674285889233 L213.1839291393891,228.9829709023912 M213.1839291393891,228.9829709023912 L211.03097661384766,229.8795315772207 M215.08340662626293,281.2086996279373 L214.98100620182134,240.62963905986268 M211.13553233979795,270.45255968397987 L215.08340662626293,281.2086996279373 M211.03097661384766,229.8795315772207 L214.98100620182134,240.62963905986268 M219.20893267260146,287.7474909037777 L219.1087988434528,247.16476484538774 M215.08340662626293,281.2086996279373 L219.20893267260146,287.7474909037777 M214.98100620182134,240.62963905986268 L219.1087988434528,247.16476484538774 M222.30972133975362,291.20673040229053 L222.21129558051365,250.62206570220857 M219.20893267260146,287.7474909037777 L222.30972133975362,291.20673040229053 M219.1087988434528,247.16476484538774 L222.21129558051365,250.62206570220857 M210.51842429175736,296.9387670852121 L210.4134506084641,256.3508908131404 M222.30972133975362,291.20673040229053 L210.51842429175736,296.9387670852121 M222.21129558051365,250.62206570220857 L210.4134506084641,256.3508908131404 M205.11208779178375,294.5993653366713 L205.00412590645837,254.01279967484734 M210.51842429175736,296.9387670852121 L205.11208779178375,294.5993653366713 M210.4134506084641,256.3508908131404 L205.00412590645837,254.01279967484734 M194.60060857167596,291.1621778863063 L194.4868343884643,250.57753815222344 M205.11208779178375,294.5993653366713 L194.60060857167596,291.1621778863063 M205.00412590645837,254.01279967484734 L194.4868343884643,250.57753815222344 M176.8283646105094,287.1181252607393 L176.70475980773807,246.53575195320693 M194.60060857167596,291.1621778863063 L176.8283646105094,287.1181252607393 M194.4868343884643,250.57753815222344 L176.70475980773807,246.53575195320693 M171.1753352442674,290.35869621059567 L171.04858820366763,249.77450673579756 M176.8283646105094,287.1181252607393 L174.92858762782157,288.18925154601476 M174.92858762782157,288.18925154601476 L173.04420102537787,289.26946625656353 M173.04420102537787,289.26946625656353 L171.1753352442674,290.35869621059567 M176.70475980773807,246.53575195320693 L174.80392695699842,247.60627789399925 M174.80392695699842,247.60627789399925 L172.91849291778405,248.68588720149083 M172.91849291778405,248.68588720149083 L171.04858820366763,249.77450673579756 M178.14274478788212,300.60025228189284 L178.01982247188653,260.0103250584783 M171.1753352442674,290.35869621059567 L178.14274478788212,300.60025228189284 M171.04858820366763,249.77450673579756 L178.01982247188653,260.0103250584783 M184.0821283144396,306.6625276912818 L183.96247686857586,266.06920562879213 M178.14274478788212,300.60025228189284 L184.0821283144396,306.6625276912818 M178.01982247188653,260.0103250584783 L183.96247686857586,266.06920562879213 M188.13090045822415,309.78256992135357 L188.01348259657618,269.1875010885291 M184.0821283144396,306.6625276912818 L188.13090045822415,309.78256992135357 M183.96247686857586,266.06920562879213 L188.01348259657618,269.1875010885291 M178.12311581482425,316.5574630749061 L178.0001287775772,275.95860230463364 M188.13090045822415,309.78256992135357 L178.12311581482425,316.5574630749061 M188.01348259657618,269.1875010885291 L178.0001287775772,275.95860230463364 M172.11696184637856,314.7612059832433 L171.9906518048931,274.1633504500976 M178.12311581482425,316.5574630749061 L172.11696184637856,314.7612059832433 M178.0001287775772,275.95860230463364 L171.9906518048931,274.1633504500976 M160.75583207782572,312.3654116900206 L160.6232335547414,271.7688970648331 M172.11696184637856,314.7612059832433 L160.75583207782572,312.3654116900206 M171.9906518048931,274.1633504500976 L160.6232335547414,271.7688970648331 M142.04987574031406,310.0588317531705 L141.90691868954207,269.4636082681122 M160.75583207782572,312.3654116900206 L142.04987574031406,310.0588317531705 M160.6232335547414,271.7688970648331 L141.90691868954207,269.4636082681122 M137.3913151485391,313.79333655305487 L137.24576138876068,273.1960227081187 M142.04987574031406,310.0588317531705 L140.47922713329427,311.29618081660084 M140.47922713329427,311.29618081660084 L138.92634408044034,312.541047346179 M138.92634408044034,312.541047346179 L137.3913151485391,313.79333655305487 M141.90691868954207,269.4636082681122 L140.3353947387527,270.7002646881346 M140.3353947387527,270.7002646881346 L138.7816460995819,271.94443441311853 M138.7816460995819,271.94443441311853 L137.24576138876068,273.1960227081187 M147.19527870696936,323.24128626493194 L147.05512257723717,282.63868589602225 M137.3913151485391,313.79333655305487 L147.19527870696936,323.24128626493194 M137.24576138876068,273.1960227081187 L147.05512257723717,282.63868589602225 M154.79098216793184,328.6614348012487 L154.65501691909566,288.0558028562245 M147.19527870696936,323.24128626493194 L154.79098216793184,328.6614348012487 M147.05512257723717,282.63868589602225 L154.65501691909566,288.0558028562245 M159.67978042073688,331.3568298008659 L159.5465160963811,290.7496906104409 M154.79098216793184,328.6614348012487 L159.67978042073688,331.3568298008659 M154.65501691909566,288.0558028562245 L159.5465160963811,290.7496906104409 M151.72938373625607,338.99297922732165 L151.5916818607752,298.381571155832 M159.67978042073688,331.3568298008659 L151.72938373625607,338.99297922732165 M159.5465160963811,290.7496906104409 L151.5916818607752,298.381571155832 M145.2849470383686,337.78991150809196 L145.14367545341437,297.1791758769797 M151.72938373625607,338.99297922732165 L145.2849470383686,337.78991150809196 M151.5916818607752,298.381571155832 L145.14367545341437,297.1791758769797 M133.3801281492037,336.5030990146612 L133.23225906027358,295.8930826807441 M145.2849470383686,337.78991150809196 L133.3801281492037,336.5030990146612 M145.14367545341437,297.1791758769797 L133.23225906027358,295.8930826807441 M114.2449242763825,336.00113072722195 L114.08644486228519,295.3913949951298 M133.3801281492037,336.5030990146612 L114.2449242763825,336.00113072722195 M133.23225906027358,295.8930826807441 L114.08644486228519,295.3913949951298 M110.70894149209204,340.12948429726003 L110.5484828630336,299.5174410301863 M114.2449242763825,336.00113072722195 L113.04656688478502,337.3715368453061 M113.04656688478502,337.3715368453061 L111.86787832214839,338.74769028384634 M111.86787832214839,338.74769028384634 L110.70894149209204,340.12948429726003 M114.08644486228519,295.3913949951298 L112.8874168825825,296.7610350700357 M112.8874168825825,296.7610350700357 L111.70806856583255,298.13641931012216 M111.70806856583255,298.13641931012216 L110.5484828630336,299.5174410301863 M123.08966125602308,348.525033649843 L122.93603437970592,307.90829930453026 M110.70894149209204,340.12948429726003 L123.08966125602308,348.525033649843 M110.5484828630336,299.5174410301863 L122.93603437970592,307.90829930453026 M132.13907134306146,353.15409244773605 L131.99044612459522,312.53477249587587 M123.08966125602308,348.525033649843 L132.13907134306146,353.15409244773605 M122.93603437970592,307.90829930453026 L131.99044612459522,312.53477249587587 M137.73694179545953,355.35048959510607 L137.59141384885743,314.72994305164974 M132.13907134306146,353.15409244773605 L137.73694179545953,355.35048959510607 M131.99044612459522,312.53477249587587 L137.59141384885743,314.72994305164974 M132.06344311296778,363.6424717806851 L131.91473319264958,323.0172958495888 M137.73694179545953,355.35048959510607 L132.06344311296778,363.6424717806851 M137.59141384885743,314.72994305164974 L131.91473319264958,323.0172958495888 M125.35466420704392,363.06686496878274 L125.20223319020636,322.4420103296894 M132.06344311296778,363.6424717806851 L125.35466420704392,363.06686496878274 M131.91473319264958,323.0172958495888 L125.20223319020636,322.4420103296894 M113.22796371277974,362.92703211682095 L113.06880286094423,322.30225553109835 M125.35466420704392,363.06686496878274 L113.22796371277974,362.92703211682095 M125.20223319020636,322.4420103296894 L113.06880286094423,322.30225553109835 M94.18160027058423,364.2485216019597 L94.01186238328114,323.6230073970715 M113.22796371277974,362.92703211682095 L94.18160027058423,364.2485216019597 M113.06880286094423,322.30225553109835 L94.01186238328114,323.6230073970715 M91.86662309643975,368.6596159774942 L91.69557965986371,328.03164000492217 M94.18160027058423,364.2485216019597 L93.38885988477955,365.71511799639444 M93.38885988477955,365.71511799639444 L92.61717747532197,367.1855108262554 M92.61717747532197,367.1855108262554 L91.86662309643975,368.6596159774942 M94.01186238328114,323.6230073970715 L93.21867516526311,325.0887852397637 M93.21867516526311,325.0887852397637 L92.44655755919456,326.5583574645813 M92.44655755919456,326.5583574645813 L91.69557965986371,328.03164000492217 M106.49371902298947,375.7712234238687 L106.33076327644534,335.1392798113636 M91.86662309643975,368.6596159774942 L106.49371902298947,375.7712234238687 M91.69557965986371,328.03164000492217 L106.33076327644534,335.1392798113636 M116.75419070621456,379.4809662449856 L116.5969156301133,338.84695353813794 M106.49371902298947,375.7712234238687 L116.75419070621456,379.4809662449856 M106.33076327644534,335.1392798113636 L116.5969156301133,338.84695353813794 M122.9105969264998,381.11721887904974 L122.75673336140119,340.4822936916716 M116.75419070621456,379.4809662449856 L122.9105969264998,381.11721887904974 M116.5969156301133,338.84695353813794 L122.75673336140119,340.4822936916716 M119.67285227038775,389.8410650589143 L119.51715364202045,349.2012762624292 M122.9105969264998,381.11721887904974 L119.67285227038775,389.8410650589143 M122.75673336140119,340.4822936916716 L119.51715364202045,349.2012762624292 M112.88153668953566,389.91036484102034 L112.7220657424416,349.27053741864853 M119.67285227038775,389.8410650589143 L112.88153668953566,389.91036484102034 M119.51715364202045,349.2012762624292 L112.7220657424416,349.27053741864853 M100.86209174420037,390.92468188236825 L100.69594035878168,350.2842891228949 M112.88153668953566,389.91036484102034 L100.86209174420037,390.92468188236825 M112.7220657424416,349.27053741864853 L100.69594035878168,350.2842891228949 M82.42253350020286,394.0392521910899 L82.24612511307419,353.39712369818744 M100.86209174420037,390.92468188236825 L82.42253350020286,394.0392521910899 M100.69594035878168,350.2842891228949 L82.24612511307419,353.39712369818744 M81.3944462179141,398.61380910122466 L81.21744458151272,357.9691317664926 M82.42253350020286,394.0392521910899 L82.057942055983,395.5623776110207 M82.057942055983,395.5623776110207 L81.71522714954693,397.08727106018586 M81.71522714954693,397.08727106018586 L81.3944462179141,398.61380910122466 M82.24612511307419,353.39712369818744 L81.88132378018832,354.91940039575076 M81.88132378018832,354.91940039575076 L81.53841111266081,356.4434442079682 M81.53841111266081,356.4434442079682 L81.21744458151272,357.9691317664926 M97.87526288667601,404.2436569261762 L97.70739131642364,363.59584363761854 M81.3944462179141,398.61380910122466 L97.87526288667601,404.2436569261762 M81.21744458151272,357.9691317664926 L97.70739131642364,363.59584363761854 M109.07027351021935,406.9301947551612 L108.90861041115954,366.2808853430834 M97.87526288667601,404.2436569261762 L109.07027351021935,406.9301947551612 M97.70739131642364,363.59584363761854 L108.90861041115954,366.2808853430834 M115.61880870577795,407.9600571138063 L115.46078002616582,367.3101742331267 M109.07027351021935,406.9301947551612 L115.61880870577795,407.9600571138063 M108.90861041115954,366.2808853430834 L115.46078002616582,367.3101742331267 M114.91029632269226,416.8791304798375 L114.75183525673322,376.22428244996445 M115.61880870577795,407.9600571138063 L114.91029632269226,416.8791304798375 M115.46078002616582,367.3101742331267 L114.75183525673322,376.22428244996445 M108.22125912012166,417.593361403371 L108.05907692530116,376.93811587359005 M114.91029632269226,416.8791304798375 L108.22125912012166,417.593361403371 M114.75183525673322,376.22428244996445 L108.05907692530116,376.93811587359005 M96.63678721788801,419.7376709205556 L96.46815602107904,379.08123208437996 M108.22125912012166,417.593361403371 L96.63678721788801,419.7376709205556 M108.05907692530116,376.93811587359005 L96.46815602107904,379.08123208437996 M79.30801093556238,424.56610688835553 L79.12972360333049,383.90698154319125 M96.63678721788801,419.7376709205556 L79.30801093556238,424.56610688835553 M96.46815602107904,379.08123208437996 L79.12972360333049,383.90698154319125 M79.5980347774867,429.1798317752227 L79.41988620103251,388.5181400466515 M79.30801093556238,424.56610688835553 L79.3825328910334,426.1044001573294 M79.3825328910334,426.1044001573294 L79.47921970742163,427.6423420905978 M79.47921970742163,427.6423420905978 L79.5980347774867,429.1798317752227 M79.12972360333049,383.90698154319125 L79.20427948813494,385.4444190650186 M79.20427948813494,385.4444190650186 L79.30101256255205,386.9815055184593 M79.30101256255205,386.9815055184593 L79.41988620103251,388.5181400466515 M97.48759003856208,433.16945569931033 L97.31936998352921,392.5055452647833 M79.5980347774867,429.1798317752227 L97.48759003856208,433.16945569931033 M79.41988620103251,388.5181400466515 L97.31936998352921,392.5055452647833 M109.31390938951336,434.7562857499588 L109.15225865809646,394.0914929834035 M97.48759003856208,433.16945569931033 L109.31390938951336,434.7562857499588 M97.31936998352921,392.5055452647833 L109.15225865809646,394.0914929834035 M116.07681598744739,435.14983246581215 L115.91892441362023,394.4848208856013 M109.31390938951336,434.7562857499588 L116.07681598744739,435.14983246581215 M109.15225865809646,394.0914929834035 L115.91892441362023,394.4848208856013 M117.9224425911624,444.02114838063585 L117.7655393251398,403.3512055594799 M116.07681598744739,435.14983246581215 L117.9224425911624,444.02114838063585 M115.91892441362023,394.4848208856013 L117.7655393251398,403.3512055594799 M111.51858178043676,445.36272140409017 L111.35811053483076,404.69203305956665 M117.9224425911624,444.02114838063585 L111.51858178043676,445.36272140409017 M117.7655393251398,403.3512055594799 L111.35811053483076,404.69203305956665 M100.68642677136393,448.5819509733908 L100.51991535555919,407.90947389907313 M111.51858178043676,445.36272140409017 L100.68642677136393,448.5819509733908 M111.35811053483076,404.69203305956665 L100.51991535555919,407.90947389907313 M84.94447761093454,454.9978658791709 L84.7691780347962,414.3218248108335 M100.68642677136393,448.5819509733908 L84.94447761093454,454.9978658791709 M100.51991535555919,407.90947389907313 L84.7691780347962,414.3218248108335 M86.54795479525046,459.5247743216204 L86.3735258272444,418.8462193411443 M84.94447761093454,454.9978658791709 L85.45721095425847,456.5093177692786 M85.45721095425847,456.5093177692786 L85.99171113799525,458.0183237044379 M85.99171113799525,458.0183237044379 L86.54795479525046,459.5247743216204 M84.7691780347962,414.3218248108335 L85.28218943700301,415.8324372824422 M85.28218943700301,415.8324372824422 L85.8169798271316,417.3406052267591 M85.8169798271316,417.3406052267591 L86.3735258272444,418.8462193411443 M105.36065210302388,461.7597620684043 L105.19668196027476,421.0799661696311 M86.54795479525046,459.5247743216204 L105.36065210302388,461.7597620684043 M86.3735258272444,418.8462193411443 L105.19668196027476,421.0799661696311 M117.49638365542626,462.2001200274312 L117.3391652931225,421.5200796493543 M105.36065210302388,461.7597620684043 L117.49638365542626,462.2001200274312 M105.19668196027476,421.0799661696311 L117.3391652931225,421.5200796493543 M124.28922716834666,461.9446674628368 L124.1357902172262,421.2647689069931 M117.49638365542626,462.2001200274312 L124.28922716834666,461.9446674628368 M117.3391652931225,421.5200796493543 L124.1357902172262,421.2647689069931 M128.64416625698334,470.5254732636515 L128.49311747914953,429.84081189866265 M124.28922716834666,461.9446674628368 L128.64416625698334,470.5254732636515 M124.1357902172262,421.2647689069931 L128.49311747914953,429.84081189866265 M122.7013255617045,472.4595635572513 L122.54696057671026,431.77382897697856 M128.64416625698334,470.5254732636515 L122.7013255617045,472.4595635572513 M128.49311747914953,429.84081189866265 L122.54696057671026,431.77382897697856 M112.91969501017519,476.66891668297 L112.75986646680502,435.9808467503534 M122.7013255617045,472.4595635572513 L112.91969501017519,476.66891668297 M122.54696057671026,431.77382897697856 L112.75986646680502,435.9808467503534 M99.19943152502344,484.50178193183257 L99.0319285552614,443.80936775250603 M112.91969501017519,476.66891668297 L99.19943152502344,484.50178193183257 M112.75986646680502,435.9808467503534 L99.0319285552614,443.80936775250603 M102.07565934543811,488.8176350465274 L101.90973846898657,448.12282801464374 M99.19943152502344,484.50178193183257 L100.13737505935308,485.94493693420833 M100.13737505935308,485.94493693420833 L101.09614807672244,487.3835887095579 M101.09614807672244,487.3835887095579 L102.07565934543811,488.8176350465274 M99.0319285552614,443.80936775250603 L99.97038780881451,445.25172255875384 M99.97038780881451,445.25172255875384 L100.92968820701265,446.68957669789364 M100.92968820701265,446.68957669789364 L101.90973846898657,448.12282801464374 M121.29816042637668,489.2312509321704 L121.14294324708493,448.5362146075958 M102.07565934543811,488.8176350465274 L121.29816042637668,489.2312509321704 M101.90973846898657,448.12282801464374 L121.14294324708493,448.5362146075958 M133.411448039422,488.50962117234087 L133.26298002889973,447.81498489484335 M121.29816042637668,489.2312509321704 L133.411448039422,488.50962117234087 M121.14294324708493,448.5362146075958 L133.26298002889973,447.81498489484335 M140.04813554024128,487.61029806210496 L139.90336717705907,446.9161603609999 M133.411448039422,488.50962117234087 L140.04813554024128,487.61029806210496 M133.26298002889973,447.81498489484335 L139.90336717705907,446.9161603609999 M146.79836608599953,495.66474987259767 L146.65732594055626,454.96614773359795 M140.04813554024128,487.61029806210496 L146.79836608599953,495.66474987259767 M139.90336717705907,446.9161603609999 L146.65732594055626,454.96614773359795 M141.4805072211131,498.1400639550304 L141.3364951526042,457.4400901898768 M146.79836608599953,495.66474987259767 L141.4805072211131,498.1400639550304 M146.65732594055626,454.96614773359795 L141.3364951526042,457.4400901898768 M133.02000663862555,503.2271109466017 L132.87126086924684,462.52431892087736 M141.4805072211131,498.1400639550304 L133.02000663862555,503.2271109466017 M141.3364951526042,457.4400901898768 L132.87126086924684,462.52431892087736 M121.7025980685271,512.2665649481377 L121.54750863627464,471.55876693986585 M133.02000663862555,503.2271109466017 L121.7025980685271,512.2665649481377 M132.87126086924684,462.52431892087736 L121.54750863627464,471.55876693986585 M125.77556940417969,516.2523701664427 L125.6227331324086,475.54236563750385 M121.7025980685271,512.2665649481377 L123.04102762948366,513.6016324256836 M123.04102762948366,513.6016324256836 L124.3987087378573,514.9302645021662 M124.3987087378573,514.9302645021662 L125.77556940417969,516.2523701664427 M121.54750863627464,471.55876693986585 L122.88667845311727,472.893095277363 M122.88667845311727,472.893095277363 L124.2451106279762,474.22099183042366 M124.2451106279762,474.22099183042366 L125.6227331324086,475.54236563750385 M144.8808994708141,514.8277935785611 L144.73871689292403,474.1185776322504 M125.77556940417969,516.2523701664427 L144.8808994708141,514.8277935785611 M125.6227331324086,475.54236563750385 L144.73871689292403,474.1185776322504 M156.6390461044912,512.9606699613053 L156.5034234689599,472.25248766546355 M144.8808994708141,514.8277935785611 L156.6390461044912,512.9606699613053 M144.73871689292403,474.1185776322504 L156.5034234689599,472.25248766546355 M162.93706242922207,511.44035262092643 L162.804955096734,470.7330120598224 M156.6390461044912,512.9606699613053 L162.93706242922207,511.44035262092643 M156.5034234689599,472.25248766546355 L162.804955096734,470.7330120598224 M171.9019474653245,518.7462003078531 L171.77481062262498,478.0348154532325 M162.93706242922207,511.44035262092643 L171.9019474653245,518.7462003078531 M162.804955096734,470.7330120598224 L171.77481062262498,478.0348154532325 M167.35643531283606,521.6962779686144 L167.22675446374618,480.98326050098717 M171.9019474653245,518.7462003078531 L167.35643531283606,521.6962779686144 M171.77481062262498,478.0348154532325 L167.22675446374618,480.98326050098717 M160.45233220172278,527.5238508644638 L160.31878161682087,486.8076091160061 M167.35643531283606,521.6962779686144 L160.45233220172278,527.5238508644638 M167.22675446374618,480.98326050098717 L160.31878161682087,486.8076091160061 M151.8541452809662,537.5252002268305 L151.71576336361622,496.80342733455075 M160.45233220172278,527.5238508644638 L151.8541452809662,537.5252002268305 M160.31878161682087,486.8076091160061 L151.71576336361622,496.80342733455075 M151.8541452809662,537.5252002268305 L157.01435060360802,541.070563724588 M151.71576336361622,496.80342733455075 L156.87883324343161,500.34683083496054" stroke="black"  stroke-width="4"  fill="red"/></svg>